<?xml version="1.0" encoding="iso-8859-1"?>
<!-- Generator: Adobe Illustrator 19.0.0, SVG Export Plug-In . SVG Version: 6.00 Build 0)  -->
<svg version="1.1" id="Capa_1" xmlns="http://www.w3.org/2000/svg" xmlns:xlink="http://www.w3.org/1999/xlink" x="0px" y="0px"
	 viewBox="0 0 512 512" style="enable-background:new 0 0 512 512;" xml:space="preserve">
<g>
	<g>
		<path d="M444.489,188.394C444.489,84.513,359.977,0,256.096,0h-0.191C152.023,0,67.511,84.513,67.511,188.394
			c0,40.361,13.301,80.397,37.453,112.735l114.781,153.68c-3.471,0.591-6.758,1.269-9.81,2.032C190.735,461.642,181,470.106,181,482
			c0,11.894,9.735,20.358,28.936,25.159C222.424,510.281,238.783,512,256,512s33.576-1.719,46.064-4.841
			C321.265,502.358,331,493.894,331,482c0-11.894-9.735-20.358-28.936-25.159c-3.052-0.763-6.339-1.441-9.81-2.032l114.781-153.68
			C431.188,268.792,444.489,228.755,444.489,188.394z M256.905,452.006C256.603,452.005,256.303,452,256,452
			c-0.303,0-0.603,0.005-0.905,0.006L128.999,283.178c-20.306-27.188-31.488-60.85-31.488-94.784
			C97.511,101.055,168.565,30,255.904,30h0.191c87.339,0,158.394,71.055,158.394,158.394c0,33.934-11.183,67.595-31.488,94.783
			L256.905,452.006z"/>
	</g>
</g>
<g>
	<g>
		<path d="M302.228,179.743C307.769,171.16,311,160.954,311,150v-20c0-30.327-24.673-55-55-55c-30.327,0-55,24.673-55,55v20
			c0,10.954,3.231,21.16,8.772,29.743C181.315,190.401,161,217.868,161,250v25h190v-25C351,217.868,330.685,190.401,302.228,179.743
			z M231,130c0-13.785,11.215-25,25-25c13.785,0,25,11.215,25,25v20c0,13.785-11.215,25-25,25c-13.785,0-25-11.215-25-25V130z
			 M191.276,245c2.495-22.468,21.601-40,44.724-40h40c23.123,0,42.229,17.532,44.724,40H191.276z"/>
	</g>
</g>
<g>
</g>
<g>
</g>
<g>
</g>
<g>
</g>
<g>
</g>
<g>
</g>
<g>
</g>
<g>
</g>
<g>
</g>
<g>
</g>
<g>
</g>
<g>
</g>
<g>
</g>
<g>
</g>
<g>
</g>
</svg>
